PathFileType	4	(X/Y/Z)	/Users/visionmauri/4_2_1_f_1_Sports2D/4_2_1_f_1_Sports2D_px_person00.trc
DataRate	CameraRate	NumFrames	NumMarkers	Units	OrigDataRate	OrigDataStartFrame	OrigNumFrames
30.0	30.0	13	22	m	30.0	143	382
Frame#	Time	Hip			RHip			RKnee			RAnkle			RBigToe			RSmallToe			RHeel			LHip			LKnee			LAnkle			LBigToe			LSmallToe			LHeel			Neck			Head			Nose			RShoulder			RElbow			RWrist			LShoulder			LElbow			LWrist			
		X1	Y1	Z1	X2	Y2	Z2	X3	Y3	Z3	X4	Y4	Z4	X5	Y5	Z5	X6	Y6	Z6	X7	Y7	Z7	X8	Y8	Z8	X9	Y9	Z9	X10	Y10	Z10	X11	Y11	Z11	X12	Y12	Z12	X13	Y13	Z13	X14	Y14	Z14	X15	Y15	Z15	X16	Y16	Z16	X17	Y17	Z17	X18	Y18	Z18	X19	Y19	Z19	X20	Y20	Z20	X21	Y21	Z21	X22	Y22	Z22
143	4.779177602799649	510.05390121991496	833.0785463431678	0.0	551.301945344252	835.4747613030155	0.0	597.0070478113242	998.6025644218428	0.0	585.032195650128	1007.3039236846164	0.0	593.494577660586	1038.779604809121	0.0	601.7670065423589	1069.9013589376193	0.0	574.8192309575296	988.4780084944068	0.0	471.6414822041389	838.0263437690711	0.0	507.51442299526326	1035.273172965074	0.0	509.9368239138663	1231.8413752263502	0.0	544.6738311814572	1266.3774550072258	0.0	522.8288510855676	1267.9730125780536	0.0	504.1103357038515	1262.139448397699	0.0	559.3801051951003	579.8128740810951	0.0	630.3207717658066	487.19736443006667	0.0	623.7971566442602	561.5739152357069	0.0	614.8778271391164	610.155768111038	0.0	660.3675287271842	732.9743355593444	0.0	732.88232787869	831.3816521351562	0.0	476.49557781913364	598.1551858312464	0.0	389.9059426879187	689.5084825734076	0.0	399.5256590454614	804.2398963235315	0.0
144	4.81259842519685	507.7870542418835	833.7813173538975	0.0	548.0156643527898	837.1834263735998	0.0	595.861887302697	997.3526660065553	0.0	584.1027760763383	1006.6468120895876	0.0	594.1838577493567	1029.0613482344781	0.0	600.6593129435752	1058.192516107948	0.0	573.685029092036	988.1791884884778	0.0	470.12555386129407	837.7793846000658	0.0	507.138105826949	1034.7516940039263	0.0	509.4203927180851	1232.1213435326572	0.0	545.3868520424213	1266.1031014596142	0.0	523.6720957038516	1268.294063009061	0.0	504.19131129481866	1262.0683739775834	0.0	558.3360178310991	580.8075780530526	0.0	630.6923871146598	487.51091588225495	0.0	623.4353943062769	563.0730200877775	0.0	612.5310949785061	611.162106822549	0.0	658.2082228618017	733.3975883130006	0.0	733.122748820342	831.376972453565	0.0	475.7198849345781	598.5739172855716	0.0	388.85262792256435	688.2386685312334	0.0	407.3199738038977	800.1623602387151	0.0
145	4.84601924759405	505.8162643613724	833.9049810083808	0.0	544.8497271168695	838.8275102913143	0.0	595.4294214202527	994.895529323793	0.0	582.6635932251596	1004.4078118449864	0.0	593.3748718555566	1022.1520109817234	0.0	597.1269989278758	1042.9024419211476	0.0	572.3563778365578	990.5819106464168	0.0	469.8195463189242	838.0572148943032	0.0	506.59524940927344	1035.3838347662982	0.0	508.9706697638271	1231.9401138921266	0.0	546.0814860874481	1265.9616731101328	0.0	523.3505329957485	1268.128864233694	0.0	504.0657038960216	1262.2036083611454	0.0	557.1721149184118	581.5725965679156	0.0	631.2827755461728	487.8811270726622	0.0	623.9264456541531	563.4075299403083	0.0	610.0754395075913	610.3758403068035	0.0	655.5588061820633	733.5178619644304	0.0	732.9576003221539	831.2162089082652	0.0	475.690563147393	599.0812227527392	0.0	390.144078388523	689.86288504169	0.0	418.64320203568997	797.4035445365612	0.0
146	4.879440069991251	503.5551332969782	832.9650873101461	0.0	542.0838413722086	838.5712726425005	0.0	595.4189981809035	990.3145522019631	0.0	581.224208530753	997.7709769939518	0.0	590.0299648695138	1037.3349473987234	0.0	591.8685985457629	1032.9584939899355	0.0	572.1093720653264	988.9891469618639	0.0	470.16310185216565	838.3231275854299	0.0	505.627641187975	1036.2962909586663	0.0	508.79158645800385	1231.3830513994887	0.0	546.7947217263924	1265.6880666386987	0.0	522.9068274372081	1267.5987810804427	0.0	503.96632316279073	1262.4886052845332	0.0	556.4393377905424	581.6190561255603	0.0	632.1830642336266	487.29329909189386	0.0	624.6891465047097	562.7647038484712	0.0	607.5719212055095	608.6695952520613	0.0	653.0556558157099	733.1766675020302	0.0	732.7095585930066	831.0032816815313	0.0	476.5136893445029	599.3942304266591	0.0	393.80729469672394	694.0049381370083	0.0	434.1250578225136	793.9508214745114	0.0
147	4.9128608923884505	501.2337416851635	832.0103357358437	0.0	539.9015492018983	836.6943014279008	0.0	595.2997030307722	984.7251671232522	0.0	581.6016484346251	988.614078675381	0.0	585.7155148856065	1099.3632194648608	0.0	588.2672585093318	1046.81287338304	0.0	574.7142597604263	982.5669259104648	0.0	470.35433069915507	838.1961748441415	0.0	504.3789542599694	1037.1290459197735	0.0	509.0062443292889	1230.8956670240802	0.0	547.1088461607492	1264.9514868297053	0.0	523.4722867391094	1267.0840175433532	0.0	503.97819368285184	1262.6973924606878	0.0	556.3764507188404	581.514137794657	0.0	633.5655500976932	486.1200090361474	0.0	625.463816257563	562.1121148595211	0.0	605.2024964227413	607.2909892460766	0.0	651.6326762402842	732.7914500173829	0.0	733.1932704461668	830.9359486294791	0.0	477.6356763530836	599.6663609572009	0.0	398.78732725095216	699.694367840037	0.0	449.9279688306378	784.0548382521075	0.0
148	4.946281714785651	499.9320722466087	832.1829362132448	0.0	537.9966577706449	835.5777811829845	0.0	594.9933318300688	981.2077094766754	0.0	586.3200515852207	999.8260841613595	0.0	590.4511965206293	1189.0146420075234	0.0	594.6850470397696	1107.8115356996518	0.0	580.7342249933101	1001.1068782323922	0.0	470.26228887918234	838.0918060430139	0.0	503.27448053365606	1038.072224225724	0.0	509.3681735586748	1231.3813350926519	0.0	547.7197001841574	1263.8891507680553	0.0	525.9165813372674	1266.6620072219946	0.0	503.95871216435984	1263.1956180138259	0.0	556.5616970969907	581.7008521368306	0.0	634.747673561432	485.3565808626723	0.0	626.3900142252894	561.7579546079335	0.0	602.8641439938896	606.2181643227785	0.0	650.9558850995681	732.1132371909612	0.0	734.2970901213238	831.0333994469095	0.0	478.7550680575354	599.8394785866187	0.0	404.41627818734156	705.5435362637616	0.0	459.7743641073319	764.6632944492811	0.0
149	4.979702537182852	499.9908706635504	833.5394002364604	0.0	535.9558157208452	837.0185267528744	0.0	594.6278248306729	982.1493201286082	0.0	596.3095376861627	1061.8798097928786	0.0	618.7677418570355	1252.0359834830138	0.0	622.0595477242618	1201.214052102916	0.0	589.1082368006769	1081.412159080288	0.0	470.2647594999232	838.5168656022478	0.0	502.6420220672646	1038.750176508968	0.0	509.82777329775917	1232.2858014931196	0.0	549.2910427837385	1262.441502191484	0.0	529.0266778205701	1265.5335761471908	0.0	503.94254455329775	1263.9842724662121	0.0	556.7141850874932	581.7152356922846	0.0	634.8783708667204	485.0900856247732	0.0	627.6328722758312	561.6094837335106	0.0	600.241614614699	604.8408491221585	0.0	649.9844527997608	730.7399558775563	0.0	735.0428206366374	830.9657906899582	0.0	481.03073141249126	599.234599414948	0.0	412.0844735228769	710.7653801533608	0.0	463.01463807054694	744.9295613245757	0.0
150	5.013123359580051	500.39470884376874	835.196059353725	0.0	534.1165239747996	839.7600754866469	0.0	594.2964086148604	986.8875374160122	0.0	607.7944806360579	1158.8516032841121	0.0	663.9096262278225	1268.5106645524443	0.0	663.3310037437124	1270.3626977693552	0.0	596.9836633531023	1197.8096574471092	0.0	470.92567050366034	838.9189576287459	0.0	502.76825603391865	1038.6770633169267	0.0	510.47572469572185	1231.862446923558	0.0	551.194293310889	1259.7344299721574	0.0	530.1924705395174	1262.6591162391583	0.0	504.1041074308374	1264.5250673409046	0.0	556.8575076846297	581.222097592681	0.0	634.0580100953977	484.9246199796357	0.0	628.8654659916116	561.7508118521846	0.0	597.5359101237749	603.521236706597	0.0	648.5908123564645	729.5379222896256	0.0	735.144305044947	830.6167342367826	0.0	485.0994721918295	597.8549413076606	0.0	425.05282330097947	715.1206263381262	0.0	466.70807167278707	742.597630575282	0.0
151	5.046544181977252	500.2490811674831	836.212773901608	0.0	533.2448816647153	840.7383902733635	0.0	594.1062512504616	993.0139652856683	0.0	614.9130968779548	1232.2120101368328	0.0	696.832232717061	1263.3804317595686	0.0	692.4192042375765	1289.1623529860487	0.0	601.6528549339371	1277.7847856318854	0.0	472.5082329412716	838.6855242793332	0.0	503.8914819062404	1038.1964408261615	0.0	511.10555852839906	1230.0584505010734	0.0	553.2898500906169	1255.940549068093	0.0	530.0348971683765	1258.230735129355	0.0	504.3065639816718	1264.498901277855	0.0	556.8857467311271	580.655414402043	0.0	633.0284869723589	484.5438086650827	0.0	629.6422255217644	562.291841844968	0.0	595.0538843860503	602.9647160089048	0.0	647.1027721451877	729.1868217276877	0.0	735.1672893422898	830.385112790185	0.0	489.53661436436323	596.909747788701	0.0	444.79584695600073	718.1669140104419	0.0	477.8923294358733	763.483290313489	0.0
152	5.079965004374452	499.33745931482736	836.2165623611527	0.0	532.9794934380395	839.037741082745	0.0	593.3616941262173	998.3372767255343	0.0	614.8282577385245	1254.8460517425303	0.0	702.3940522127415	1259.186948212489	0.0	696.3687165223142	1282.6661582699103	0.0	601.0221886781999	1296.8262900420045	0.0	474.3619264515786	838.3041241487923	0.0	505.5992618502315	1037.591112493136	0.0	511.6320901205885	1228.7154083140676	0.0	557.4191696407141	1253.6693950642807	0.0	533.4072416346876	1254.5026074847117	0.0	504.2085086416802	1264.1779175100826	0.0	556.7510081825093	580.1546158689243	0.0	632.2205328601134	483.6876018305422	0.0	630.0058534197714	563.219128670161	0.0	592.4835835436161	603.0437773597414	0.0	645.4021725163053	728.6943636010374	0.0	735.2261164828716	830.2994721478493	0.0	493.24892076210267	596.98458348351	0.0	468.2254730658672	720.0408994323087	0.0	498.84059888738983	790.5826126859911	0.0
153	5.113385826771653	497.82676587207163	835.3013316172705	0.0	531.756043110103	836.6783677577414	0.0	590.8833032108641	999.7151824585821	0.0	608.7242416156319	1248.5228766371135	0.0	690.674426686278	1259.5281348320395	0.0	685.324645325659	1276.956718592675	0.0	594.2901957183531	1288.8373492335363	0.0	475.46327535499415	838.0423576224978	0.0	507.0627765461113	1036.564449858939	0.0	512.234745286465	1229.0821187425647	0.0	564.5021141537808	1255.2870055778737	0.0	542.6744084329099	1254.4936239629717	0.0	504.17017216760127	1264.2687261797714	0.0	556.6632791853435	579.4635900490888	0.0	631.746268447125	482.4723424893922	0.0	630.0301758727902	564.549021628654	0.0	589.9594775146786	603.4093917782698	0.0	643.69811874757	727.4872467164055	0.0	735.0549321450753	829.8179689561991	0.0	497.0931531210908	596.8312955148164	0.0	491.5561547959915	721.5864312259946	0.0	529.9032278899131	803.7884085319964	0.0
154	5.1468066491688536	496.61460048769027	834.015015630527	0.0	529.032646289414	835.447318540639	0.0	587.1529116802152	996.112785628284	0.0	600.2146459500332	1239.7551558833727	0.0	677.4324972346627	1263.144493485164	0.0	673.4616452625648	1278.372384746489	0.0	585.0642637442946	1283.5572033825533	0.0	475.90089744427763	837.1813210293708	0.0	507.9299371434585	1035.3543118500247	0.0	512.7150844095327	1230.4084055085432	0.0	571.0795386996175	1259.5344424575926	0.0	553.4839201481759	1258.4075920651346	0.0	505.03644576345937	1265.1331897797336	0.0	556.6788869234549	578.8441983115013	0.0	631.6805666702311	481.3034726372729	0.0	629.4901792365906	566.0054949213828	0.0	588.3768043315952	603.7801704582038	0.0	642.8359648033584	726.7021336923166	0.0	734.8993724767379	828.9470286994525	0.0	501.4177993229985	595.4595508842018	0.0	512.0175303266859	723.2313109961052	0.0	565.2476642381755	802.3376941928512	0.0
155	5.180227471566053	496.54789853590387	832.8589726967316	0.0	526.0821601633995	835.0419145847616	0.0	583.6830688180455	991.9180663018709	0.0	592.3758643850305	1237.7201093341819	0.0	670.4598178887964	1269.7932787805773	0.0	666.3888874312055	1284.1724210678742	0.0	577.5579161254335	1284.9880185693075	0.0	476.5471535776734	835.3689884335195	0.0	508.44772762754826	1034.7889257678937	0.0	512.6062630829637	1231.123268823495	0.0	572.5875751703894	1263.5854579437919	0.0	560.5791803522342	1262.8719067668105	0.0	506.6008612137185	1266.1983313323924	0.0	556.7595904904808	578.5777313955482	0.0	631.9038233958727	480.2404345901712	0.0	628.8107660096126	566.673758985294	0.0	587.7753286930183	603.5886419287756	0.0	643.0928658491606	727.0300733462338	0.0	735.096923709707	828.3015758282511	0.0	504.92454330178094	593.88043586061	0.0	526.4301135247931	724.9323091949054	0.0	592.0161657057887	797.2207261825451	0.0
